<svg width="12" height="12" viewBox="0 0 12 12" fill="none" xmlns="http://www.w3.org/2000/svg">
<path d="M11.0127 0.112459L3.70049 0C3.5069 0.000387488 3.32354 0.076837 3.18991 0.212884C3.05628 0.348931 2.98307 0.533689 2.98605 0.727365C2.98903 0.921042 3.06796 1.10813 3.20584 1.24836C3.34371 1.38858 3.52951 1.47071 3.72321 1.47705L9.25225 1.56209L0.208397 10.606C0.072006 10.7424 -0.00292542 10.9291 8.74649e-05 11.125C0.00310036 11.3209 0.0838107 11.5099 0.224463 11.6506C0.365115 11.7912 0.554188 11.8719 0.750087 11.875C0.945987 11.878 1.13266 11.803 1.26906 11.6667L10.3129 2.62276L10.398 8.15179C10.3978 8.24982 10.4171 8.34753 10.4549 8.43919C10.4926 8.53084 10.548 8.61462 10.6178 8.68563C10.6877 8.75664 10.7705 8.81345 10.8615 8.85277C10.9526 8.89208 11.05 8.91312 11.148 8.91463C11.2461 8.91614 11.3429 8.8981 11.4328 8.86156C11.5227 8.82503 11.6038 8.77073 11.6715 8.70183C11.7391 8.63294 11.792 8.55083 11.8269 8.46029C11.8619 8.36975 11.8782 8.2726 11.875 8.17451L11.7626 0.862346C11.7595 0.666484 11.6788 0.477458 11.5382 0.336833C11.3976 0.196209 11.2085 0.115501 11.0127 0.112459Z" fill="#FF7369"/>
</svg>
