<svg width="17" height="13" viewBox="0 0 17 13" fill="none" xmlns="http://www.w3.org/2000/svg">
<path d="M16.1032 5.84839L10.9998 0.610437C10.8623 0.474148 10.6784 0.398986 10.4877 0.401147C10.297 0.403308 10.1148 0.482616 9.9803 0.621992C9.84579 0.761368 9.76975 0.949655 9.76856 1.14631C9.76736 1.34296 9.84111 1.53224 9.97393 1.67337L13.8328 5.634L1.0429 5.6643C0.850012 5.66476 0.665198 5.74423 0.52914 5.88521C0.393082 6.02618 0.316962 6.21707 0.3174 6.41602C0.317907 6.6149 0.39499 6.80547 0.531653 6.94586C0.668386 7.08618 0.853605 7.16471 1.04643 7.16432L13.8364 7.13398L9.99632 11.1129C9.92703 11.1822 9.87178 11.2651 9.83392 11.3567C9.79598 11.4483 9.77615 11.5467 9.77553 11.6463C9.77498 11.7459 9.79359 11.8446 9.83035 11.9367C9.86719 12.0288 9.92139 12.1124 9.98978 12.1826C10.0582 12.2529 10.1396 12.3084 10.2291 12.3459C10.3186 12.3834 10.4144 12.4022 10.5109 12.4011C10.6075 12.4 10.7029 12.3791 10.7915 12.3395C10.8802 12.3 10.9602 12.2427 11.0272 12.1709L16.1057 6.9089C16.2417 6.76789 16.3178 6.57698 16.3174 6.37812C16.3169 6.17927 16.2398 5.98867 16.1032 5.84839Z" fill="#FF7369"/>
</svg>
