<svg width="24" height="32" viewBox="0 0 24 32" fill="none" xmlns="http://www.w3.org/2000/svg">
<g clip-path="url(#clip0_132_2)">
<mask id="mask0_132_2" style="mask-type:luminance" maskUnits="userSpaceOnUse" x="0" y="0" width="24" height="32">
<path d="M24 0H0V32H24V0Z" fill="white"/>
</mask>
<g mask="url(#mask0_132_2)">
<path d="M1.5 32H22.5C23.327 32 24 31.327 24 30.5V9.5C24 9.483 23.992 9.469 23.991 9.453C23.989 9.43 23.983 9.41 23.978 9.388C23.9623 9.31853 23.9316 9.25334 23.888 9.197C23.881 9.188 23.882 9.177 23.875 9.168L15.875 0.168C15.872 0.165 15.868 0.165 15.865 0.162C15.804 0.0982104 15.727 0.051939 15.642 0.028C15.623 0.022 15.606 0.02 15.586 0.017C15.557 0.012 15.53 0 15.5 0H1.5C0.673 0 0 0.673 0 1.5V30.5C0 31.327 0.673 32 1.5 32ZM16 1.815L22.387 9H16.5C16.28 9 16 8.58 16 8.25V1.815ZM1 1.5C1 1.36739 1.05268 1.24021 1.14645 1.14645C1.24021 1.05268 1.36739 1 1.5 1H15V8.25C15 9.059 15.655 10 16.5 10H23V30.5C23 30.6326 22.9473 30.7598 22.8536 30.8536C22.7598 30.9473 22.6326 31 22.5 31H1.5C1.22 31 1 30.78 1 30.5V1.5Z" fill="url(#paint0_linear_132_2)"/>
<path d="M5.5 14H18.5C18.6326 14 18.7598 13.9473 18.8536 13.8536C18.9473 13.7598 19 13.6326 19 13.5C19 13.3674 18.9473 13.2402 18.8536 13.1464C18.7598 13.0527 18.6326 13 18.5 13H5.5C5.36739 13 5.24021 13.0527 5.14645 13.1464C5.05268 13.2402 5 13.3674 5 13.5C5 13.6326 5.05268 13.7598 5.14645 13.8536C5.24021 13.9473 5.36739 14 5.5 14ZM5.5 18H18.5C18.6326 18 18.7598 17.9473 18.8536 17.8536C18.9473 17.7598 19 17.6326 19 17.5C19 17.3674 18.9473 17.2402 18.8536 17.1464C18.7598 17.0527 18.6326 17 18.5 17H5.5C5.36739 17 5.24021 17.0527 5.14645 17.1464C5.05268 17.2402 5 17.3674 5 17.5C5 17.6326 5.05268 17.7598 5.14645 17.8536C5.24021 17.9473 5.36739 18 5.5 18ZM5.5 10H11.5C11.6326 10 11.7598 9.94732 11.8536 9.85355C11.9473 9.75979 12 9.63261 12 9.5C12 9.36739 11.9473 9.24021 11.8536 9.14645C11.7598 9.05268 11.6326 9 11.5 9H5.5C5.36739 9 5.24021 9.05268 5.14645 9.14645C5.05268 9.24021 5 9.36739 5 9.5C5 9.63261 5.05268 9.75979 5.14645 9.85355C5.24021 9.94732 5.36739 10 5.5 10ZM5.5 22H18.5C18.6326 22 18.7598 21.9473 18.8536 21.8536C18.9473 21.7598 19 21.6326 19 21.5C19 21.3674 18.9473 21.2402 18.8536 21.1464C18.7598 21.0527 18.6326 21 18.5 21H5.5C5.36739 21 5.24021 21.0527 5.14645 21.1464C5.05268 21.2402 5 21.3674 5 21.5C5 21.6326 5.05268 21.7598 5.14645 21.8536C5.24021 21.9473 5.36739 22 5.5 22ZM5.5 26H18.5C18.6326 26 18.7598 25.9473 18.8536 25.8536C18.9473 25.7598 19 25.6326 19 25.5C19 25.3674 18.9473 25.2402 18.8536 25.1464C18.7598 25.0527 18.6326 25 18.5 25H5.5C5.36739 25 5.24021 25.0527 5.14645 25.1464C5.05268 25.2402 5 25.3674 5 25.5C5 25.6326 5.05268 25.7598 5.14645 25.8536C5.24021 25.9473 5.36739 26 5.5 26Z" fill="url(#paint1_linear_132_2)"/>
</g>
</g>
<defs>
<linearGradient id="paint0_linear_132_2" x1="0" y1="0" x2="24" y2="0" gradientUnits="userSpaceOnUse">
<stop stop-color="#FF7369"/>
<stop offset="1" stop-color="#FFB06D"/>
</linearGradient>
<linearGradient id="paint1_linear_132_2" x1="5" y1="9" x2="19" y2="9" gradientUnits="userSpaceOnUse">
<stop stop-color="#FF7369"/>
<stop offset="1" stop-color="#FFB06D"/>
</linearGradient>
<clipPath id="clip0_132_2">
<rect width="24" height="32" fill="white"/>
</clipPath>
</defs>
</svg>
