<svg width="32" height="32" viewBox="0 0 32 32" fill="none" xmlns="http://www.w3.org/2000/svg">
<g clip-path="url(#clip0_150_62)">
<path d="M28 1C29.654 1 31 2.346 31 4V28C31 29.654 29.654 31 28 31H4C2.346 31 1 29.654 1 28V4C1 2.346 2.346 1 4 1H28ZM28 0H4C1.8 0 0 1.8 0 4V28C0 30.2 1.8 32 4 32H28C30.2 32 32 30.2 32 28V4C32 1.8 30.2 0 28 0Z" fill="white"/>
<path d="M24.8097 14.2811C24.9247 14.8941 24.9867 15.5361 24.9867 16.2071C24.9867 21.4461 21.4797 25.1711 16.1837 25.1711C11.1177 25.1711 7.01367 21.0671 7.01367 16.0011C7.01367 10.9351 11.1177 6.83105 16.1837 6.83105C18.6597 6.83105 20.7287 7.74205 22.3167 9.22105L19.7317 11.8061V11.8001C18.7687 10.8831 17.5487 10.4131 16.1847 10.4131C13.1587 10.4131 10.6997 12.9691 10.6997 15.9951C10.6997 19.0211 13.1587 21.5831 16.1847 21.5831C18.9297 21.5831 20.7987 20.0131 21.1827 17.8581H16.1847V14.2821L24.8097 14.2811Z" fill="white"/>
</g>
<defs>
<clipPath id="clip0_150_62">
<rect width="32" height="32" fill="white"/>
</clipPath>
</defs>
</svg>
