<svg width="18" height="19" viewBox="0 0 18 19" fill="none" xmlns="http://www.w3.org/2000/svg">
<path d="M17.796 7.45C17.911 8.063 17.973 8.705 17.973 9.376C17.973 14.615 14.466 18.34 9.17 18.34C4.104 18.34 0 14.236 0 9.17C0 4.104 4.104 0 9.17 0C11.646 0 13.715 0.911 15.303 2.39L12.718 4.975V4.969C11.755 4.052 10.535 3.582 9.171 3.582C6.145 3.582 3.686 6.138 3.686 9.164C3.686 12.19 6.145 14.752 9.171 14.752C11.916 14.752 13.785 13.182 14.169 11.027H9.171V7.451L17.796 7.45Z" fill="white"/>
</svg>
