<svg width="32" height="32" viewBox="0 0 32 32" fill="none" xmlns="http://www.w3.org/2000/svg">
<path d="M31.3703 13C31.5703 14.07 31.6803 15.19 31.6803 16.36C31.6803 25.5 25.5603 32 16.3203 32C7.48031 32 0.320312 24.84 0.320312 16C0.320312 7.16 7.48031 0 16.3203 0C20.6403 0 24.2503 1.59 27.0203 4.17L22.5103 8.68V8.67C20.8303 7.07 18.7003 6.25 16.3213 6.25C11.0413 6.25 6.75131 10.71 6.75131 15.99C6.75131 21.269 11.0413 25.74 16.3213 25.74C21.1113 25.74 24.3713 23 25.0423 19.24H16.3203V13H31.3703Z" fill="white"/>
</svg>
