<svg width="10" height="18" viewBox="0 0 10 18" fill="none" xmlns="http://www.w3.org/2000/svg">
<path d="M5.19504 7.7715H9.39859C9.44497 8.27001 9.46816 8.7462 9.46816 9.20007C9.46816 10.8147 9.29229 12.2562 8.94055 13.5249C8.5888 14.7935 8.08728 15.7849 7.43597 16.4992C6.78466 17.2135 6.03769 17.5706 5.19504 17.5706C4.58819 17.5706 4.01032 17.3455 3.46145 16.8954C2.91257 16.4452 2.43907 15.837 2.04094 15.0706C1.64281 14.3042 1.32682 13.3928 1.09297 12.3362C0.859114 11.2797 0.742188 10.1673 0.742188 8.99918C0.742188 7.83102 0.859114 6.71867 1.09297 5.66212C1.32682 4.60557 1.64281 3.69411 2.04094 2.92774C2.43907 2.16137 2.91257 1.55311 3.46145 1.10296C4.01032 0.652809 4.58819 0.427734 5.19504 0.427734C6.35464 0.427734 7.34996 1.1755 8.18101 2.67104L6.96923 4.91435C6.49379 4.02893 5.9024 3.58622 5.19504 3.58622C4.69642 3.58622 4.23548 3.82804 3.81222 4.31167C3.38897 4.7953 3.05365 5.45192 2.80627 6.28154C2.55889 7.11115 2.4352 8.01703 2.4352 8.99918C2.4352 9.98132 2.55889 10.8872 2.80627 11.7168C3.05365 12.5464 3.38897 13.2031 3.81222 13.6867C4.23548 14.1703 4.69642 14.4121 5.19504 14.4121C5.53133 14.4121 5.84055 14.3228 6.12272 14.1443C6.40489 13.9657 6.63681 13.7425 6.81848 13.4746C7.00015 13.2068 7.15863 12.9017 7.29392 12.5594C7.4292 12.2172 7.52874 11.8935 7.59251 11.5885C7.65629 11.2834 7.69978 10.9932 7.72297 10.7179H5.19504V7.7715Z" fill="white"/>
</svg>
