<svg width="12" height="12" viewBox="0 0 12 12" fill="none" xmlns="http://www.w3.org/2000/svg">
<path d="M5.93502 1.48438C6.40351 1.48353 6.8676 1.54083 7.30039 1.65294C7.73317 1.76506 8.12602 1.92977 8.45617 2.13751C9.12891 2.55722 9.50001 3.11646 9.50001 3.71095C9.50001 4.30545 9.12891 4.86469 8.47279 5.27438C8.37304 5.33598 7.14394 6.10006 5.93561 7.29351C4.7362 6.10192 3.51185 5.3408 3.41922 5.2844C3.08709 5.07842 2.82373 4.83327 2.64444 4.56316C2.46515 4.29305 2.37349 4.00338 2.37478 3.71095C2.37478 3.11646 2.74589 2.55722 3.41863 2.13677C4.09137 1.71632 4.9363 1.48438 5.93502 1.48438ZM5.93502 3.80301e-06C5.15557 -0.000405688 4.38366 0.0954399 3.66365 0.282035C2.94364 0.468629 2.28972 0.742296 1.73945 1.08731C-0.579816 2.53607 -0.579816 4.88584 1.73945 6.33497C1.73945 6.33497 5.93502 8.90666 5.93502 11.8754C5.93502 8.90666 10.1353 6.33497 10.1353 6.33497C12.4546 4.88621 12.4546 2.53644 10.1353 1.08731C9.58441 0.742024 8.9297 0.468207 8.20885 0.281607C7.48801 0.0950067 6.71525 -0.000695329 5.93502 3.80301e-06Z" fill="#7D7D7D"/>
</svg>
