<svg width="12" height="12" viewBox="0 0 12 12" fill="none" xmlns="http://www.w3.org/2000/svg">
<path d="M4.9045 2.99189C4.76275 1.36124 3.06168 0.561139 2.98969 0.528481C2.92239 0.496843 2.84697 0.486735 2.77372 0.499535C0.809925 0.825367 0.51454 1.96838 0.502665 2.01588C0.486509 2.08207 0.489079 2.15146 0.510087 2.21627C2.85239 9.48403 7.72031 10.8311 9.32044 11.2742C9.44364 11.3084 9.54532 11.3359 9.62251 11.3611C9.71058 11.3899 9.80628 11.3843 9.89043 11.3455C9.93941 11.3232 11.0957 10.7785 11.3785 9.00159C11.391 8.92402 11.3786 8.84448 11.3429 8.77447C11.3176 8.72549 10.7128 7.57431 9.03545 7.16758C8.97854 7.15303 8.91896 7.15252 8.86181 7.16609C8.80467 7.17967 8.75168 7.20692 8.7074 7.24551C8.17823 7.69752 7.44719 8.17922 7.13177 8.22895C5.01731 7.19504 3.83651 5.21111 3.79198 4.8348C3.76601 4.62327 4.25065 3.88032 4.80802 3.27616C4.84305 3.23813 4.86973 3.1932 4.88635 3.14424C4.90297 3.09528 4.90915 3.04338 4.9045 2.99189Z" fill="#7D7D7D"/>
</svg>
