<svg width="13" height="16" viewBox="0 0 13 16" fill="none" xmlns="http://www.w3.org/2000/svg">
<path d="M6.717 0C2.332 0 0 2.81 0 5.874C0 7.295 0.794 9.067 2.065 9.629C2.258 9.716 2.363 9.679 2.406 9.5C2.444 9.364 2.611 8.709 2.692 8.4C2.7064 8.3518 2.70768 8.30063 2.69573 8.25177C2.68378 8.20291 2.65902 8.15811 2.624 8.122C2.202 7.634 1.867 6.745 1.867 5.911C1.867 3.774 3.566 1.699 6.457 1.699C8.957 1.699 10.706 3.323 10.706 5.646C10.706 8.271 9.317 10.087 7.512 10.087C6.513 10.087 5.769 9.303 6.005 8.333C6.29 7.178 6.849 5.936 6.849 5.103C6.849 4.356 6.427 3.738 5.565 3.738C4.548 3.738 3.723 4.745 3.723 6.097C3.723 6.956 4.027 7.536 4.027 7.536L2.834 12.359C2.518 13.644 2.877 15.725 2.908 15.904C2.927 16.003 3.038 16.034 3.1 15.953C3.199 15.823 4.415 14.088 4.756 12.834C4.88 12.377 5.389 10.524 5.389 10.524C5.724 11.129 6.691 11.636 7.721 11.636C10.785 11.636 12.999 8.943 12.999 5.601C12.988 2.397 10.246 0 6.717 0Z" fill="white"/>
</svg>
