<svg width="2500" height="2500" viewBox="0 0 2500 2500" fill="none" xmlns="http://www.w3.org/2000/svg">
<g clip-path="url(#clip0_144_44)">
<path d="M0 1250.13C6.50065 895.34 131.763 599.06 376.038 361.536C620.312 124.012 911.591 3.25033 1250.13 0C1614.66 6.50065 1913.44 131.013 2146.21 373.537C2378.99 616.062 2497 908.341 2500.25 1250.13C2493.75 1601.66 2368.49 1897.19 2124.21 2136.46C1879.94 2375.49 1588.66 2496.75 1250.13 2500C1132.86 2500 1015.85 2482 898.59 2446.24C921.342 2410.49 944.094 2369.74 966.847 2324.23C992.849 2268.98 1025.35 2164.72 1064.61 2011.7C1074.36 1969.45 1089.11 1912.44 1108.61 1840.68C1131.36 1879.69 1170.37 1915.44 1225.87 1948.19C1372.39 2016.45 1526.9 2009.95 1689.67 1928.69C1858.94 1830.93 1976.2 1679.67 2041.2 1474.65C2099.71 1259.88 2092.46 1060.36 2019.2 876.588C1945.94 692.569 1814.93 560.056 1626.16 478.548C1388.64 410.291 1157.37 417.542 932.843 500.55C708.321 583.558 552.055 726.073 464.046 927.843C441.294 1002.6 427.543 1076.86 422.542 1150.12C417.542 1223.37 420.042 1294.88 429.793 1364.89C439.544 1434.89 464.046 1497.65 503.05 1552.91C542.054 1608.16 594.309 1650.67 659.316 1679.92C675.568 1686.42 688.569 1686.42 698.32 1679.92C711.321 1673.42 724.322 1647.41 737.324 1601.91C750.325 1556.41 755.326 1525.4 752.075 1509.15C748.825 1502.65 742.324 1491.15 732.573 1474.9C664.316 1364.14 641.314 1247.87 664.316 1125.86C687.069 1003.85 737.574 900.34 815.582 815.832C936.094 708.321 1076.86 649.815 1237.87 640.064C1398.89 630.313 1536.65 674.317 1650.42 771.827C1712.17 843.334 1752.18 929.593 1769.93 1030.6C1787.68 1131.61 1787.93 1228.37 1769.93 1321.13C1751.93 1413.89 1720.17 1500.9 1674.67 1582.41C1593.16 1709.42 1497.15 1774.43 1386.64 1777.68C1321.63 1774.43 1268.63 1749.18 1227.87 1701.92C1187.12 1654.67 1174.87 1600.16 1191.37 1538.4C1197.87 1502.65 1217.37 1432.64 1249.88 1328.38C1282.38 1224.12 1300.38 1146.11 1303.63 1094.11C1293.88 970.347 1236.87 906.841 1132.61 903.59C1051.11 913.341 991.099 950.095 951.845 1013.35C912.591 1076.61 891.589 1149.37 888.339 1230.62C898.09 1325.13 912.841 1390.14 932.343 1425.89C896.59 1572.41 868.837 1689.67 849.335 1777.43C842.834 1800.18 824.833 1870.19 795.58 1987.45C766.327 2104.71 750.075 2194.22 746.825 2255.98V2392.74C515.802 2285.23 333.283 2129.96 200.02 1926.44C66.7567 1722.92 0 1497.4 0 1250.13Z" fill="white"/>
</g>
<defs>
<clipPath id="clip0_144_44">
<rect width="2500" height="2500" fill="white"/>
</clipPath>
</defs>
</svg>
